<?xml version="1.0" encoding="UTF-8" standalone="no"?>
<!-- Created with Inkscape (http://www.inkscape.org/) -->

<svg
   width="18.416542cm"
   height="10.515752cm"
   viewBox="0 0 184.16542 105.15752"
   version="1.1"
   id="svg5"
   inkscape:version="1.1.2 (0a00cf5339, 2022-02-04)"
   sodipodi:docname="Emar+ Evirid.svg"
   inkscape:export-filename="/home/alexandras/Изображения/Emar Evirid.png"
   inkscape:export-xdpi="300"
   inkscape:export-ydpi="300"
   xmlns:inkscape="http://www.inkscape.org/namespaces/inkscape"
   xmlns:sodipodi="http://sodipodi.sourceforge.net/DTD/sodipodi-0.dtd"
   xmlns:xlink="http://www.w3.org/1999/xlink"
   xmlns="http://www.w3.org/2000/svg"
   xmlns:svg="http://www.w3.org/2000/svg">
  <sodipodi:namedview
     id="namedview7"
     pagecolor="#000000"
     bordercolor="#666666"
     borderopacity="1.0"
     inkscape:pageshadow="2"
     inkscape:pageopacity="1"
     inkscape:pagecheckerboard="false"
     inkscape:document-units="mm"
     showgrid="false"
     inkscape:zoom="1.4556537"
     inkscape:cx="298.83481"
     inkscape:cy="235.28948"
     inkscape:window-width="1920"
     inkscape:window-height="1004"
     inkscape:window-x="0"
     inkscape:window-y="0"
     inkscape:window-maximized="1"
     inkscape:current-layer="g7493"
     units="cm">
    <sodipodi:guide
       position="448.97399,280.4904"
       orientation="0,1711.9338"
       id="guide40719" />
    <sodipodi:guide
       position="781.50116,-102.46852"
       orientation="1295.7172,0"
       id="guide40721" />
    <sodipodi:guide
       position="-56.668964,333.69722"
       orientation="-1295.7172,0"
       id="guide40725" />
  </sodipodi:namedview>
  <defs
     id="defs2" />
  <g
     inkscape:label="Слой 1"
     inkscape:groupmode="layer"
     id="layer1"
     transform="translate(490.47731,-180.31137)">
    <g
       id="g7493"
       transform="matrix(0.66408256,0,0,0.66408256,-164.75988,95.893979)">
      <g
         id="g7535"
         transform="matrix(0.46001292,0,0,0.46001292,-264.85141,154.14951)">
        <image
           width="133.40849"
           height="114.02257"
           preserveAspectRatio="none"
           xlink:href="L%202020-no-bg-preview%20(carve.photos).png"
           id="image17"
           x="295.27609"
           y="7.0891995"
           transform="scale(-1,1)" />
        <image
           width="203.03857"
           height="152.27892"
           preserveAspectRatio="none"
           xlink:href="L%202020%20c-Photoroom.png"
           id="image29"
           x="127.73157"
           y="-7.1247573"
           transform="scale(-1,1)" />
        <image
           width="148.94875"
           height="198.59833"
           preserveAspectRatio="none"
           xlink:href="Korolok%20c-Photoroom.png"
           id="image41"
           x="-70.191048"
           y="-42.02594"
           transform="matrix(-0.96592583,0.25881905,0.25881905,0.96592583,0,0)" />
        <image
           width="140.00015"
           height="186.66687"
           preserveAspectRatio="none"
           xlink:href="Enisey-Photoroom.png"
           id="image53"
           x="-111.73625"
           y="76.787094"
           transform="rotate(-18.972724)" />
        <image
           width="81.351204"
           height="108.46828"
           preserveAspectRatio="none"
           xlink:href="AmspA93-Photoroom.png"
           id="image65"
           x="-46.103878"
           y="159.5788"
           transform="rotate(27.31784)" />
        <image
           width="124.48944"
           height="165.98592"
           preserveAspectRatio="none"
           xlink:href="240726A%20c-Photoroom.png"
           id="image77"
           x="-163.99812"
           y="-35.818695" />
        <path
           style="fill:none;stroke:#000000;stroke-width:0.264583px;stroke-linecap:butt;stroke-linejoin:miter;stroke-opacity:1"
           d="m -9.9093466,112.03033 0.1262592,2.72266 1.0802673,-0.99748"
           id="path225" />
        <path
           style="opacity:0.99;fill:#080404;fill-opacity:1;stroke:none;stroke-width:1.17078;paint-order:fill markers stroke"
           id="path260"
           d="m 4.9193152,112.44879 c -0.172376,0.65164 -0.31168,1.3108 -0.413597,1.97685 -0.409178,2.79939 3.5497557,3.37806 3.9589339,0.57867 v 0 c 0.065167,-0.49117 0.1863195,-0.97282 0.3011487,-1.45431 0.7786688,-2.71986 -3.0678176,-3.82108 -3.8464856,-1.10121 z" />
        <path
           style="opacity:0.99;fill:#090404;fill-opacity:1;stroke:none;stroke-width:1.17078;stroke-opacity:1;paint-order:fill markers stroke"
           id="path262"
           d="m 4.5214422,110.91414 c 0.03921,0.42433 0.112792,0.84789 0.267468,1.24673 0.03635,0.0937 0.08287,0.1831 0.124275,0.27465 0.01879,0.0376 0.03831,0.075 0.05659,0.11288 0.0034,0.007 -0.0087,-0.0129 -0.01191,-0.02 -0.01852,-0.0432 -0.0317,-0.0888 -0.0531,-0.13061 -0.02434,-0.0479 0.04482,0.12798 0.01455,0.051 0.721254,2.73566 4.5900446,1.71565 3.8687904,-1.02 v 0 c -0.07112,-0.25558 -0.1501514,-0.51061 -0.2778394,-0.74472 0.02434,0.0716 0.03053,0.0837 0.04678,0.16819 0,0.003 -0.0056,-0.003 -0.0061,-0.005 -0.02593,-0.11471 -0.04323,-0.22986 -0.0503,-0.34744 -0.293078,-2.81391 -4.272571,-2.39941 -3.979466,0.4145 z" />
        <text
           xml:space="preserve"
           style="font-style:italic;font-weight:bold;font-size:11.2889px;line-height:1.25;font-family:Arial;-inkscape-font-specification:'Arial Bold Italic';fill:#ffffff;fill-opacity:1;stroke-width:0.264583"
           x="-432.79364"
           y="30.849894"
           id="text6615"><tspan
             sodipodi:role="line"
             id="tspan6613"
             style="font-style:normal;font-variant:normal;font-weight:bold;font-stretch:normal;font-size:11.2889px;font-family:Arial;-inkscape-font-specification:'Arial Bold';fill:#ffffff;fill-opacity:1;stroke-width:0.264583"
             x="-432.79364"
             y="30.849894">А</tspan></text>
        <text
           xml:space="preserve"
           style="font-style:italic;font-weight:bold;font-size:11.2889px;line-height:1.25;font-family:Arial;-inkscape-font-specification:'Arial Bold Italic';fill:#ffffff;fill-opacity:1;stroke-width:0.264583"
           x="-281.55658"
           y="30.82045"
           id="text6615-3"><tspan
             sodipodi:role="line"
             id="tspan6613-6"
             style="font-style:normal;font-variant:normal;font-weight:bold;font-stretch:normal;font-size:11.2889px;font-family:Arial;-inkscape-font-specification:'Arial Bold';fill:#ffffff;fill-opacity:1;stroke-width:0.264583"
             x="-281.55658"
             y="30.82045">Б</tspan></text>
        <text
           xml:space="preserve"
           style="font-style:italic;font-weight:bold;font-size:11.2889px;line-height:1.25;font-family:Arial;-inkscape-font-specification:'Arial Bold Italic';fill:#ffffff;fill-opacity:1;stroke-width:0.264583"
           x="-161.0957"
           y="30.70466"
           id="text6615-7"><tspan
             sodipodi:role="line"
             id="tspan6613-5"
             style="font-style:normal;font-variant:normal;font-weight:bold;font-stretch:normal;font-size:11.2889px;font-family:Arial;-inkscape-font-specification:'Arial Bold';fill:#ffffff;fill-opacity:1;stroke-width:0.264583"
             x="-161.0957"
             y="30.70466">В</tspan></text>
        <text
           xml:space="preserve"
           style="font-style:italic;font-weight:bold;font-size:11.2889px;line-height:1.25;font-family:Arial;-inkscape-font-specification:'Arial Bold Italic';fill:#ffffff;fill-opacity:1;stroke-width:0.264583"
           x="-38.153183"
           y="30.938969"
           id="text6615-35"><tspan
             sodipodi:role="line"
             id="tspan6613-62"
             style="font-style:normal;font-variant:normal;font-weight:bold;font-stretch:normal;font-size:11.2889px;font-family:Arial;-inkscape-font-specification:'Arial Bold';fill:#ffffff;fill-opacity:1;stroke-width:0.264583"
             x="-38.153183"
             y="30.938969">Г</tspan></text>
        <text
           xml:space="preserve"
           style="font-style:italic;font-weight:bold;font-size:11.2889px;line-height:1.25;font-family:Arial;-inkscape-font-specification:'Arial Bold Italic';fill:#ffffff;fill-opacity:1;stroke-width:0.264583"
           x="-432.67316"
           y="150.3129"
           id="text6615-9"><tspan
             sodipodi:role="line"
             id="tspan6613-1"
             style="font-style:normal;font-variant:normal;font-weight:bold;font-stretch:normal;font-size:11.2889px;font-family:Arial;-inkscape-font-specification:'Arial Bold';fill:#ffffff;fill-opacity:1;stroke-width:0.264583"
             x="-432.67316"
             y="150.3129">Д</tspan></text>
        <text
           xml:space="preserve"
           style="font-style:italic;font-weight:bold;font-size:11.2889px;line-height:1.25;font-family:Arial;-inkscape-font-specification:'Arial Bold Italic';fill:#ffffff;fill-opacity:1;stroke-width:0.264583"
           x="-282.29657"
           y="150.39243"
           id="text6615-2"><tspan
             sodipodi:role="line"
             id="tspan6613-7"
             style="font-style:normal;font-variant:normal;font-weight:bold;font-stretch:normal;font-size:11.2889px;font-family:Arial;-inkscape-font-specification:'Arial Bold';fill:#ffffff;fill-opacity:1;stroke-width:0.264583"
             x="-282.29657"
             y="150.39243">Е</tspan></text>
        <path
           style="fill:#ffffff;stroke:#000000;stroke-width:0.264583px;stroke-linecap:butt;stroke-linejoin:miter;stroke-opacity:1"
           d="m -126.5416,130.40603 -37.45652,-0.23881 37.45652,0.23881"
           id="path45642" />
        <path
           style="fill:#ffffff;stroke:#ffffff;stroke-width:0.965;stroke-linecap:butt;stroke-linejoin:miter;stroke-miterlimit:4;stroke-dasharray:none;stroke-opacity:1"
           d="m 12.760905,251.2285 39.518025,0.0147"
           id="path45890" />
        <text
           xml:space="preserve"
           style="font-style:italic;font-weight:bold;font-size:11.2889px;line-height:1.25;font-family:Arial;-inkscape-font-specification:'Arial Bold Italic';fill:#ffffff;fill-opacity:1;stroke-width:0.264583"
           x="-161.80913"
           y="152.21112"
           id="text6615-2-3"><tspan
             sodipodi:role="line"
             id="tspan6613-7-6"
             style="font-style:normal;font-variant:normal;font-weight:bold;font-stretch:normal;font-size:11.2889px;font-family:Arial;-inkscape-font-specification:'Arial Bold';fill:#ffffff;fill-opacity:1;stroke-width:0.264583"
             x="-161.80913"
             y="152.21112">Ё</tspan></text>
        <path
           style="opacity:0.99;fill:#000000;stroke:#000000;stroke-width:0.656167;paint-order:fill markers stroke"
           id="path2705"
           d="m 66.328382,163.6598 c 0.0731,-0.35283 0.12663,-0.70846 0.193807,-1.06233 0.0526,-0.39473 0.140494,-0.64644 0.127424,-1.10181 -0.0061,-0.20759 -0.0381,-0.41361 -0.05718,-0.62041 -0.218784,-0.87867 -0.509958,-1.37959 -1.167924,-1.97539 -0.0594,-0.0538 -0.124592,-0.10082 -0.187351,-0.15068 -0.03056,-0.0243 -0.120147,-0.0995 -0.0926,-0.0718 0.02905,0.0292 0.06474,0.0509 0.0971,0.0763 0.217276,0.20495 0.193648,0.15674 0.394943,0.52413 0.321152,0.69761 0.309775,1.52702 -0.0172,2.22307 -0.08078,0.17205 -0.197776,0.32464 -0.296678,0.48695 -0.363087,0.44996 -0.784357,0.74264 -1.33858,0.89164 -0.03918,0.0258 -0.352901,0.0377 -0.134567,0.037 0.0209,1e-5 0.04202,0 0.06305,4e-5 0.09213,1.7e-4 0.152983,5.3e-4 0.150046,5.3e-4 -0.631693,-0.035 0.11258,0.0226 -0.471752,-0.0426 -0.01614,-0.002 0.03151,0.009 0.04725,0.0132 0.09975,0.0249 0.197115,0.0515 0.29546,0.0817 0.01561,0.005 -0.03162,-0.008 -0.04744,-0.0113 -0.0503,-0.0116 0,0.003 -0.08882,-0.0293 0.271753,0.13407 0.536601,0.27868 0.811715,0.40673 0.12573,0.0665 0.393197,0.21553 0.594228,0.31926 0.442859,0.23951 0.03707,-0.003 -0.0069,-0.005 -0.0032,-1.6e-4 0.0082,0.0102 0.0056,0.008 -0.03781,-0.0316 -0.07448,-0.0645 -0.111734,-0.0968 -0.157136,-0.17228 -0.333877,-0.35392 -0.421798,-0.57456 -0.02408,-0.0779 -0.01349,-0.039 -0.0322,-0.11675 0.671327,4.1899 6.59675,3.24051 5.925423,-0.94939 v 0 c -0.06519,-0.36697 -0.02699,-0.18163 -0.115597,-0.5558 -0.219498,-0.73497 -0.52832,-1.43826 -1.067302,-2.00116 -0.434896,-0.4176 -0.90125,-0.80548 -1.455553,-1.05779 -0.292391,-0.1395 -0.561234,-0.32712 -0.863308,-0.44778 0.0087,0.005 0.0359,0.0188 0.02593,0.0164 -0.07451,-0.0182 -0.135202,-0.0724 -0.202777,-0.10867 -0.194416,-0.10439 -0.184071,-0.0984 -0.346948,-0.17784 -0.03929,-0.0192 -0.07861,-0.0382 -0.117898,-0.0573 -0.408147,-0.18788 -0.825897,-0.34981 -1.265264,-0.44945 -0.437542,-0.11207 -0.8831,-0.18359 -1.335855,-0.16545 -0.354383,0.002 -0.709745,0.0165 -1.05791,0.0892 -0.91948,0.21877 -1.511406,0.55495 -2.149025,1.2676 -0.12835,0.19967 -0.278977,0.38666 -0.385048,0.59901 -0.463312,0.92764 -0.449819,1.99941 -0.0309,2.93501 0.277125,0.54409 0.580099,0.98767 1.027774,1.40317 0.10549,0.0903 0.203676,0.19074 0.319379,0.26756 0.01191,0.008 -0.0217,-0.0189 -0.03175,-0.0291 -0.07176,-0.0724 -0.152877,-0.137 -0.213757,-0.21878 -0.477414,-0.64122 -0.370761,-0.54814 -0.619866,-1.3495 -0.009,-0.14796 -0.02654,-0.29565 -0.0272,-0.4439 0,-0.0849 0.01402,-0.1693 0.02408,-0.25363 0.0026,-0.0213 0.01693,-0.0842 0.01349,-0.063 -0.02011,0.12141 -0.04429,0.24017 -0.06046,0.36159 -0.04903,0.25972 -0.10496,0.51867 -0.133694,0.78169 -0.98798,4.12671 4.848067,5.52395 5.836074,1.39723 z" />
        <text
           xml:space="preserve"
           style="font-style:italic;font-weight:bold;font-size:12.7px;line-height:1.25;font-family:Arial;-inkscape-font-specification:'Arial Bold Italic';fill:#ffffff;stroke-width:0.264583"
           x="-248.91924"
           y="-18.51753"
           id="text3801"><tspan
             sodipodi:role="line"
             id="tspan3799"
             style="font-size:12.7px;fill:#ffffff;stroke-width:0.264583"
             x="-248.91924"
             y="-18.51753">Eulimnogammarus marituji</tspan></text>
        <text
           xml:space="preserve"
           style="font-style:italic;font-weight:bold;font-size:12.7px;line-height:1.25;font-family:Arial;-inkscape-font-specification:'Arial Bold Italic';fill:#ffffff;stroke-width:0.264583"
           x="-446.2554"
           y="133.04166"
           id="text3801-7"><tspan
             sodipodi:role="line"
             id="tspan3799-5"
             style="font-size:12.7px;fill:#ffffff;stroke-width:0.264583"
             x="-446.2554"
             y="133.04166">Eulimnogammarus viridis</tspan></text>
        <path
           style="fill:none;stroke:#fcf5f5;stroke-width:0.565;stroke-linecap:butt;stroke-linejoin:miter;stroke-miterlimit:4;stroke-dasharray:4.52, 2.26;stroke-dashoffset:0;stroke-opacity:1"
           d="m -163.97612,8.4085315 0.91613,246.1189285"
           id="path906" />
        <text
           xml:space="preserve"
           style="font-style:normal;font-variant:normal;font-weight:normal;font-stretch:normal;font-size:11.2889px;line-height:1.25;font-family:Arial;-inkscape-font-specification:Arial;fill:#ffffff;stroke-width:0.264583"
           x="-126.43142"
           y="262.31036"
           id="text3801-6"><tspan
             sodipodi:role="line"
             id="tspan3799-7"
             style="font-style:normal;font-variant:normal;font-weight:normal;font-stretch:normal;font-size:11.2889px;font-family:Arial;-inkscape-font-specification:Arial;fill:#ffffff;stroke-width:0.264583"
             x="-126.43142"
             y="262.31036">Речные представители</tspan></text>
        <text
           xml:space="preserve"
           style="font-style:normal;font-variant:normal;font-weight:normal;font-stretch:normal;font-size:11.2889px;line-height:1.25;font-family:Arial;-inkscape-font-specification:Arial;fill:#ffffff;stroke-width:0.264583"
           x="-394.96078"
           y="262.21866"
           id="text3801-6-5"><tspan
             sodipodi:role="line"
             id="tspan3799-7-3"
             style="font-style:normal;font-variant:normal;font-weight:normal;font-stretch:normal;font-size:11.2889px;font-family:Arial;-inkscape-font-specification:Arial;fill:#ffffff;stroke-width:0.264583"
             x="-394.96078"
             y="262.21866">Байкальские представители</tspan></text>
        <text
           xml:space="preserve"
           style="font-style:italic;font-weight:bold;font-size:11.2889px;line-height:1.25;font-family:Arial;-inkscape-font-specification:'Arial Bold Italic';fill:#ffffff;fill-opacity:1;stroke-width:0.264583"
           x="-36.3354"
           y="150.52809"
           id="text6615-2-3-3"><tspan
             sodipodi:role="line"
             id="tspan6613-7-6-6"
             style="font-style:normal;font-variant:normal;font-weight:bold;font-stretch:normal;font-size:11.2889px;font-family:Arial;-inkscape-font-specification:'Arial Bold';fill:#ffffff;fill-opacity:1;stroke-width:0.264583"
             x="-36.3354"
             y="150.52809">Ж</tspan></text>
        <rect
           style="fill:none;stroke:#ffffff;stroke-width:0.930189;stroke-miterlimit:4;stroke-dasharray:1.86038, 1.86038;stroke-dashoffset:0;stroke-opacity:1;paint-order:fill markers stroke"
           id="rect5936"
           width="173.66908"
           height="121.36742"
           x="-458.35214"
           y="118.94737" />
      </g>
      <g
         id="g1157"
         transform="translate(0.83273315,4.7105408)">
        <image
           width="207.58281"
           height="155.68712"
           preserveAspectRatio="none"
           xlink:href="P6240119-no-bg-preview%20(carve.photos).png"
           id="image1083"
           x="125.79134"
           y="95.975601"
           transform="matrix(-0.46001293,0,0,0.46001293,-264.85141,154.14951)" />
        <rect
           style="fill:#000000;fill-opacity:1;fill-rule:evenodd;stroke:none;stroke-width:0.729778;stroke-miterlimit:4;stroke-dasharray:1.45957, 1.45957;stroke-dashoffset:0;stroke-opacity:1;paint-order:fill markers stroke"
           id="rect8506-9-1-2-7"
           width="4.468039"
           height="2.8770294"
           x="-363.99356"
           y="245.34515" />
        <rect
           style="fill:#000000;fill-opacity:1;fill-rule:evenodd;stroke:none;stroke-width:0.729778;stroke-miterlimit:4;stroke-dasharray:1.45957, 1.45957;stroke-dashoffset:0;stroke-opacity:1;paint-order:fill markers stroke"
           id="rect8506-9-1-2-7-6"
           width="4.468039"
           height="2.8770294"
           x="-384.29584"
           y="244.09569" />
      </g>
      <rect
         style="fill:#000000;fill-opacity:1;fill-rule:evenodd;stroke:none;stroke-width:0.729778;stroke-miterlimit:4;stroke-dasharray:1.45957, 1.45957;stroke-dashoffset:0;stroke-opacity:1;paint-order:fill markers stroke"
         id="rect8506-9-1-2"
         width="4.468039"
         height="2.8770294"
         x="-387.93115"
         y="248.80623" />
      <rect
         style="fill:#000000;fill-opacity:1;fill-rule:evenodd;stroke:none;stroke-width:0.729778;stroke-miterlimit:4;stroke-dasharray:1.45957, 1.45957;stroke-dashoffset:0;stroke-opacity:1;paint-order:fill markers stroke"
         id="rect8506-9"
         width="4.468039"
         height="2.8770294"
         x="-416.39005"
         y="249.28513" />
      <rect
         style="fill:#000000;fill-opacity:1;fill-rule:evenodd;stroke:none;stroke-width:0.585416;stroke-miterlimit:4;stroke-dasharray:1.17084, 1.17084;stroke-dashoffset:0;stroke-opacity:1;paint-order:fill markers stroke"
         id="rect8506"
         width="2.8751733"
         height="2.8770294"
         x="-260.92374"
         y="193.46512" />
      <rect
         style="fill:#000000;fill-opacity:1;fill-rule:evenodd;stroke:none;stroke-width:0.729778;stroke-miterlimit:4;stroke-dasharray:1.45957, 1.45957;stroke-dashoffset:0;stroke-opacity:1;paint-order:fill markers stroke"
         id="rect8506-9-1"
         width="4.468039"
         height="2.8770294"
         x="-408.34561"
         y="246.21394" />
      <rect
         style="fill:#000000;fill-opacity:1;fill-rule:evenodd;stroke:none;stroke-width:0.729778;stroke-miterlimit:4;stroke-dasharray:1.45957, 1.45957;stroke-dashoffset:0;stroke-opacity:1;paint-order:fill markers stroke"
         id="rect8506-9-1-2-7-3"
         width="4.468039"
         height="2.8770294"
         x="-348.38638"
         y="244.7859" />
      <image
         width="82.435776"
         height="61.826836"
         preserveAspectRatio="none"
         xlink:href="f33129984-no-bg-preview%20(carve.photos).png"
         id="image1122"
         x="103.73061"
         y="444.81158"
         transform="matrix(-0.70710678,-0.70710678,-0.70710678,0.70710678,0,0)" />
      <rect
         style="fill:#000000;fill-rule:evenodd;stroke:#000000;stroke-width:1.40071;stroke-dasharray:2.80143, 2.80143;paint-order:fill markers stroke"
         id="rect1181"
         width="3.4975994"
         height="3.4880517"
         x="-422.60587"
         y="253.42572" />
      <rect
         style="fill:#000000;fill-rule:evenodd;stroke:#000000;stroke-width:1.40071;stroke-dasharray:2.80143, 2.80143;paint-order:fill markers stroke"
         id="rect1181-7"
         width="3.4975994"
         height="3.4880517"
         x="-413.55029"
         y="251.59935" />
    </g>
  </g>
</svg>
